<?xml version="1.0" encoding="UTF-8"?>
<svg width="250px" height="250px" viewBox="0 0 250 250" version="1.1" xmlns="http://www.w3.org/2000/svg" xmlns:xlink="http://www.w3.org/1999/xlink">
    <!-- Generator: Sketch 41.2 (35397) - http://www.bohemiancoding.com/sketch -->
    <title>cycle</title>
    <desc>Created with Sketch.</desc>
    <defs>
        <path d="M0.00873114463,43.7300502 C0.00873114463,67.8821569 19.5490328,87.4601003 43.6644543,87.4601003 C67.7711446,87.4601003 87.3201775,67.8821569 87.3201775,43.7300502 C87.3201775,19.5779435 67.7711446,0 43.6644543,0 C19.5490328,0 0.00873114463,19.5779435 0.00873114463,43.7300502 L0.00873114463,43.7300502 Z" id="path-1"></path>
        <path d="M0.00873114463,43.7300502 C0.00873114463,67.8821569 19.5490328,87.4601003 43.6644543,87.4601003 C67.7711446,87.4601003 87.3201775,67.8821569 87.3201775,43.7300502 C87.3201775,19.5779435 67.7711446,0 43.6644543,0 C19.5490328,0 0.00873114463,19.5779435 0.00873114463,43.7300502 L0.00873114463,43.7300502 Z" id="path-3"></path>
    </defs>
    <g id="Icons" stroke="none" stroke-width="1" fill="none" fill-rule="evenodd">
        <g id="cycle">
            <g transform="translate(0.000000, 55.000000)" id="Cycle">
                <g>
                    <g id="colored">
                        <g id="Page-1" transform="translate(0.083077, 0.058087)">
                            <g id="Group-72" transform="translate(4.365572, 47.073643)">
                                <g id="Fill-70-Clipped">
                                    <mask id="mask-2" fill="white">
                                        <use xlink:href="#path-1"></use>
                                    </mask>
                                    <g id="path-3"></g>
                                    <polygon id="Fill-70" fill="#23D160" mask="url(#mask-2)" points="-21.8191304 109.325125 109.148039 109.325125 109.148039 -21.8650251 -21.8191304 -21.8650251"></polygon>
                                </g>
                            </g>
                            <path d="M48.0278438,51.4466484 C26.365874,51.4466484 8.73769299,69.1048427 8.73769299,90.8036936 C8.73769299,112.502544 26.365874,130.160739 48.0278438,130.160739 C69.6898137,130.160739 87.3179947,112.502544 87.3179947,90.8036936 C87.3179947,69.1048427 69.6898137,51.4466484 48.0278438,51.4466484 M48.0278438,138.906749 C21.5506477,138.906749 0.00654835847,117.325969 0.00654835847,90.8036936 C0.00654835847,64.2814181 21.5506477,42.7006384 48.0278438,42.7006384 C74.5050399,42.7006384 96.0491393,64.2814181 96.0491393,90.8036936 C96.0491393,117.325969 74.5050399,138.906749 48.0278438,138.906749" id="Fill-73" fill="#314E55"></path>
                            <g id="Group-77" transform="translate(157.160603, 47.073643)">
                                <g id="Fill-75-Clipped">
                                    <mask id="mask-4" fill="white">
                                        <use xlink:href="#path-3"></use>
                                    </mask>
                                    <g id="path-5"></g>
                                    <polygon id="Fill-75" fill="#23D160" mask="url(#mask-4)" points="-21.8191304 109.325125 109.148039 109.325125 109.148039 -21.8650251 -21.8191304 -21.8650251"></polygon>
                                </g>
                            </g>
                            <g id="Group-86" transform="translate(47.833433, 0.000000)">
                                <path d="M152.989442,51.4466484 C131.327472,51.4466484 113.699291,69.1048427 113.699291,90.8036936 C113.699291,112.502544 131.327472,130.160739 152.989442,130.160739 C174.651412,130.160739 192.279593,112.502544 192.279593,90.8036936 C192.279593,69.1048427 174.651412,51.4466484 152.989442,51.4466484 M152.989442,138.906749 C126.512246,138.906749 104.968147,117.325969 104.968147,90.8036936 C104.968147,64.2814181 126.512246,42.7006384 152.989442,42.7006384 C179.466638,42.7006384 201.010738,64.2814181 201.010738,90.8036936 C201.010738,117.325969 179.466638,138.906749 152.989442,138.906749" id="Fill-78" fill="#314E55"></path>
                                <path d="M105.296438,46.8090766 C104.178851,46.8090766 103.061265,46.3805221 102.209978,45.5277861 C91.9989044,35.2993274 91.9989044,18.6512973 102.209978,8.42283858 C112.421052,-1.80562016 129.03642,-1.80562016 139.251859,8.42283858 C140.958798,10.1283105 140.958798,12.8964227 139.251859,14.6062677 C137.549286,16.3117396 134.785879,16.3117396 133.07894,14.6062677 C126.273013,7.78875285 115.19319,7.78875285 108.382897,14.6062677 C101.572605,21.4237825 101.572605,32.5224692 108.382897,39.344357 C110.089836,41.054202 110.089836,43.8179412 108.382897,45.5277861 C107.531611,46.3805221 106.414024,46.8090766 105.296438,46.8090766" id="Fill-80" fill="#535353"></path>
                                <polygon id="Fill-82" fill="#535353" points="154.784565 98.1875125 99.1235185 42.4316986 105.296438 36.2482695 160.957485 92.0040834"></polygon>
                                <path d="M66.1106241,95.4906803 L5.11048209,95.4906803 C3.70913337,95.4906803 2.39073053,94.8172376 1.57000294,93.6758833 C0.749275343,92.534529 0.526631155,91.0695723 0.971919531,89.7401788 L21.433357,28.080808 L1.98036674,8.03495303 C0.299621394,6.30324305 0.338911545,3.53513087 2.06767818,1.85152394 C3.80081039,0.176663019 6.5598521,0.207274054 8.24496301,1.93898404 L29.5445903,23.8870962 C30.6796391,25.0634346 31.0725406,26.7689065 30.5530375,28.3169503 L11.1655309,86.7446703 L63.722656,86.7446703 L91.7670926,42.844073 L39.5373854,42.844073 C37.1232239,42.844073 35.1718131,40.8849667 35.1718131,38.4710679 C35.1718131,36.0571692 37.1232239,34.0980629 39.5373854,34.0980629 L99.7473588,34.0980629 C101.340793,34.0980629 102.807625,34.9682909 103.575966,36.3720255 C104.339941,37.7713871 104.283188,39.4812321 103.423171,40.8281176 L69.7864359,93.474725 C68.9875362,94.7297775 67.5992842,95.4906803 66.1106241,95.4906803" id="Fill-84" fill="#314E55"></path>
                            </g>
                        </g>
                    </g>
                </g>
            </g>
        </g>
    </g>
</svg>