<svg xmlns="http://www.w3.org/2000/svg" viewBox="0 0 295.28 301.47"><title>Fichier 1</title><g id="Calque_2" data-name="Calque 2"><g id="Calque_1-2" data-name="Calque 1"><path d="M160.9.69c-4.82-3.49-16.63,7.13-21.76,11.44-6.2,4.12-3.15,8.52,5.77,7.5C142.06,26.06,146.84,32.55,151,40c4.44,5.38,10.77,7.25,15.51,4.54,6.92-3.27,7.31-11.71,9-19.85,12.45-6.62,2.84-28.3-14.65-24Z"/><path d="M162.32,61.28c.65-4.12-3-6.28-5.61-8.19a14.36,14.36,0,0,0-9.49,2.84c-4.07,3.25-7.6,7.2-11.28,10.92A50.5,50.5,0,0,1,116.6,78a124,124,0,0,1-22,4.43c-6.26,1-12.14-1.12-18.19-1.71l-.3,1.07c8.33,2.61,16.53,5.9,25.42,6.67,9.84,1.12,20.09,1,30-2.11a78.88,78.88,0,0,0,21.59-12.61c3.84-3.35,8.3-7.17,9.19-12.5Z"/><path d="M185.65,114.35c-6.41-2.37-12.05-4.63-19.33-4.86-9.71-.34-19.44,1.16-29,2.76-8.53,1.68-17.69,6.44-19.13,13.95-2.51,8.38.13,16.77,3.24,24.56q6.43,15,12.09,30.23c.81,1.93,2.87,17.14,3.65,5.3-1.68,10.42,1.83-6.1,1.76-9.18-.52-8.44.08-16.94.06-25.41.52-6.82-.92-13.6.32-20.42,10.39,1,20.95,1.68,31.51.9,5.82-.75,13-1.73,16-6.56,2.64-3.56.33-7.77-1.12-11.28Z"/><path d="M204.89,124.48c-10,1.36-18.94,2.35-28.78,6.85-13.13,6-16.9,14.13-28.64,22.34-10.3,7.62-19.33,13-25,29.4,1.92,11.73,8.94,22.26,18,29.6,10.35,12,13.63,17.58,25,27.33-21.66,10.33-21.29,34.7,20,3,4.3,13.64-1.39-8.54-3.42-12.2-5.92-9.72-10.42-20.23-15.68-30.31-.11-.21-.21-.43-.3-.64a114,114,0,0,0-6.45-12,12.09,12.09,0,0,1,5.87-17.2,260.24,260.24,0,0,0,30.83-14.92c7.28-4.73,16.25-10.63,17.16-18.39,1.28-6-4.44-9.57-8.57-12.85Z"/><path d="M74.68,99.75c-6.58-1.91-13.79-1.9-20.8-1.3-16.24,2.6-31.22,13.75-40.27,28.31-20,30.79-17.51,72.74,4.51,97.4a52.26,52.26,0,0,0,24.4,15.43,50.39,50.39,0,0,0,8.57,1.7C65.54,242.62,81,236.57,92,225.61c10.34-9.29,16.77-22.07,20.81-35,7.06-24.86,3.28-51.93-11-71.15a53.79,53.79,0,0,0-22.3-17.9,32.06,32.06,0,0,0-4.82-1.82m-2.56,7.07h0A25.79,25.79,0,0,1,76,108.27l.13.06.13.05a47.59,47.59,0,0,1,19.7,15.85c12.71,17.07,16.56,41.92,10.07,64.88-4.25,13.55-10.43,24-18.39,31.19l-.15.14-.14.14C77.88,230,64.53,235.09,52.49,234a44.12,44.12,0,0,1-7.41-1.47A45.84,45.84,0,0,1,23.6,218.94C13.87,208,8.06,193,7.24,176.66A78.23,78.23,0,0,1,19.43,130.4l0-.07,0-.07c8-12.93,21.23-22.3,34.51-24.51,7.59-.64,13.34-.29,18.08,1.08Z"/><path d="M173.13,79c-8-18-6-29.36-.26-32S188,42.3,196,69.32c3,14,8,29.36,2.26,32S184.14,91.06,173.13,79Z"/><path d="M253.68,159.75c-6.58-1.91-13.79-1.9-20.8-1.3-16.24,2.6-31.22,13.75-40.27,28.31-20,30.79-17.51,72.74,4.51,97.4a52.26,52.26,0,0,0,24.4,15.43,50.39,50.39,0,0,0,8.57,1.7c14.45,1.34,29.87-4.72,40.93-15.68,10.34-9.29,16.77-22.07,20.81-35,7.06-24.86,3.28-51.93-11-71.15a53.79,53.79,0,0,0-22.3-17.9,32.06,32.06,0,0,0-4.82-1.82m-2.56,7.07h0a25.8,25.8,0,0,1,3.86,1.45l.13.06.13.05a47.59,47.59,0,0,1,19.7,15.85c12.71,17.07,16.56,41.92,10.07,64.88-4.25,13.55-10.43,24-18.39,31.19l-.15.14-.14.14c-9.46,9.37-22.81,14.5-34.85,13.41a44.12,44.12,0,0,1-7.41-1.47,45.84,45.84,0,0,1-21.48-13.59c-9.73-10.9-15.54-25.91-16.36-42.27a78.23,78.23,0,0,1,12.19-46.27l0-.07,0-.07c8-12.93,21.23-22.3,34.51-24.51,7.59-.64,13.34-.29,18.08,1.08Z"/></g></g></svg>