<svg xmlns="http://www.w3.org/2000/svg" viewBox="0 0 296.28 302.47"><defs><style>.cls-1{fill:#fff;stroke:#000;stroke-miterlimit:10;}</style></defs><title>hvelo</title><g id="Calque_2" data-name="Calque 2"><g id="Calque_1-2" data-name="Calque 1"><path class="cls-1" d="M161.4,1.19c-4.82-3.49-16.63,7.13-21.76,11.44-6.2,4.12-3.15,8.52,5.77,7.5-2.85,6.43,1.93,12.92,6.14,20.37,4.44,5.38,10.77,7.25,15.51,4.54,6.92-3.27,7.31-11.71,9-19.85,12.45-6.62,2.84-28.3-14.65-24Z"/><path class="cls-1" d="M162.82,61.78c.65-4.12-3-6.28-5.61-8.19a14.36,14.36,0,0,0-9.49,2.84c-4.07,3.25-7.6,7.2-11.28,10.92A50.5,50.5,0,0,1,117.1,78.54a124,124,0,0,1-22,4.43C88.82,84,83,81.85,76.89,81.26l-.3,1.07C84.92,84.94,93.12,88.22,102,89c9.84,1.12,20.09,1,30-2.11a78.88,78.88,0,0,0,21.59-12.61c3.84-3.35,8.3-7.17,9.19-12.5Z"/><path class="cls-1" d="M186.15,114.85c-6.41-2.37-12.05-4.63-19.33-4.86-9.71-.34-19.44,1.16-29,2.76-8.53,1.68-17.69,6.44-19.13,13.95-2.51,8.38.13,16.77,3.24,24.56q6.43,15,12.09,30.23c.81,1.93,2.87,17.14,3.65,5.3-1.68,10.42,1.83-6.1,1.76-9.18-.52-8.44.08-16.94.06-25.41.52-6.82-.92-13.6.32-20.42,10.39,1,20.95,1.68,31.51.9,5.82-.75,13-1.73,16-6.56,2.64-3.56.33-7.77-1.12-11.28Z"/><path class="cls-1" d="M205.39,125c-10,1.36-18.94,2.35-28.78,6.85-13.13,6-16.9,14.13-28.64,22.34-10.3,7.62-19.33,13-25,29.4,1.92,11.73,8.94,22.26,18,29.6,10.35,12,13.63,17.58,25,27.33-21.66,10.33-21.29,34.7,20,3,4.3,13.64-1.39-8.54-3.42-12.2-5.92-9.72-10.42-20.23-15.68-30.31-.11-.21-.21-.43-.3-.64a114,114,0,0,0-6.45-12,12.09,12.09,0,0,1,5.87-17.2,260.24,260.24,0,0,0,30.83-14.92c7.28-4.73,16.25-10.63,17.16-18.39,1.28-6-4.44-9.57-8.57-12.85Z"/><path class="cls-1" d="M75.18,100.25c-6.58-1.91-13.79-1.9-20.8-1.3-16.24,2.6-31.22,13.75-40.27,28.31-20,30.79-17.51,72.74,4.51,97.4A52.26,52.26,0,0,0,43,240.09a50.39,50.39,0,0,0,8.57,1.7c14.45,1.34,29.87-4.72,40.93-15.68,10.34-9.29,16.77-22.07,20.81-35,7.06-24.86,3.28-51.93-11-71.15A53.79,53.79,0,0,0,80,102.07a32.06,32.06,0,0,0-4.82-1.82m-2.56,7.07h0a25.79,25.79,0,0,1,3.86,1.45l.13.06.13.05a47.59,47.59,0,0,1,19.7,15.85c12.71,17.07,16.56,41.92,10.07,64.88-4.25,13.55-10.43,24-18.39,31.19l-.15.14-.14.14C78.38,230.46,65,235.59,53,234.5A44.12,44.12,0,0,1,45.58,233,45.84,45.84,0,0,1,24.1,219.44c-9.73-10.9-15.54-25.91-16.36-42.27A78.23,78.23,0,0,1,19.93,130.9l0-.07,0-.07c8-12.93,21.23-22.3,34.51-24.51,7.59-.64,13.34-.29,18.08,1.08Z"/><path class="cls-1" d="M173.63,79.54c-8-18-6-29.36-.26-32s15.1-4.69,23.1,22.33c3,14,8,29.36,2.26,32s-14.1-10.31-25.1-22.33Z"/><path class="cls-1" d="M254.18,160.25c-6.58-1.91-13.79-1.9-20.8-1.3-16.24,2.6-31.22,13.75-40.27,28.31-20,30.79-17.51,72.74,4.51,97.4A52.26,52.26,0,0,0,222,300.09a50.39,50.39,0,0,0,8.57,1.7c14.45,1.34,29.87-4.72,40.93-15.68,10.34-9.29,16.77-22.07,20.81-35,7.06-24.86,3.28-51.93-11-71.15a53.79,53.79,0,0,0-22.3-17.9,32.06,32.06,0,0,0-4.82-1.82m-2.56,7.07h0a25.8,25.8,0,0,1,3.86,1.45l.13.06.13.05a47.59,47.59,0,0,1,19.7,15.85c12.71,17.07,16.56,41.92,10.07,64.88-4.25,13.55-10.43,24-18.39,31.19l-.15.14-.14.14c-9.46,9.37-22.81,14.5-34.85,13.41a44.12,44.12,0,0,1-7.41-1.47,45.84,45.84,0,0,1-21.48-13.59c-9.73-10.9-15.54-25.91-16.36-42.27a78.23,78.23,0,0,1,12.19-46.27l0-.07,0-.07c8-12.93,21.23-22.3,34.51-24.51,7.59-.64,13.34-.29,18.08,1.08Z"/></g></g></svg>