<?xml version="1.0" encoding="UTF-8"?>
<svg width="250px" height="250px" viewBox="0 0 250 250" version="1.1" xmlns="http://www.w3.org/2000/svg" xmlns:xlink="http://www.w3.org/1999/xlink">
    <!-- Generator: Sketch 41.2 (35397) - http://www.bohemiancoding.com/sketch -->
    <title>no-cycle</title>
    <desc>Created with Sketch.</desc>
    <defs>
        <path d="M0.00869565217,43.4108527 C0.00869565217,67.3866667 19.4695652,86.8217054 43.4869565,86.8217054 C67.4956522,86.8217054 86.9652174,67.3866667 86.9652174,43.4108527 C86.9652174,19.4350388 67.4956522,0 43.4869565,0 C19.4695652,0 0.00869565217,19.4350388 0.00869565217,43.4108527 L0.00869565217,43.4108527 Z" id="path-1"></path>
        <path d="M0.00869565217,43.4108527 C0.00869565217,67.3866667 19.4695652,86.8217054 43.4869565,86.8217054 C67.4956522,86.8217054 86.9652174,67.3866667 86.9652174,43.4108527 C86.9652174,19.4350388 67.4956522,0 43.4869565,0 C19.4695652,0 0.00869565217,19.4350388 0.00869565217,43.4108527 L0.00869565217,43.4108527 Z" id="path-3"></path>
    </defs>
    <g id="Icons" stroke="none" stroke-width="1" fill="none" fill-rule="evenodd">
        <g id="no-cycle">
            <g id="cycle" transform="translate(0.000000, 55.000000)">
                <g id="Cycle">
                    <g id="colored">
                        <g id="Page-1" transform="translate(0.082739, 0.057663)">
                            <g id="Group-72" transform="translate(4.347826, 47.751938)">
                                <g id="Fill-70-Clipped">
                                    <mask id="mask-2" fill="white">
                                        <use xlink:href="#path-1"></use>
                                    </mask>
                                    <g id="path-3"></g>
                                    <polygon id="Fill-70" fill="#FF3860" mask="url(#mask-2)" points="-21.7304348 108.527132 108.704348 108.527132 108.704348 -21.7054264 -21.7304348 -21.7054264"></polygon>
                                </g>
                            </g>
                            <path d="M47.8326087,52.0930233 C26.2586957,52.0930233 8.70217391,69.6223256 8.70217391,91.1627907 C8.70217391,112.703256 26.2586957,130.232558 47.8326087,130.232558 C69.4065217,130.232558 86.9630435,112.703256 86.9630435,91.1627907 C86.9630435,69.6223256 69.4065217,52.0930233 47.8326087,52.0930233 M47.8326087,138.914729 C21.4630435,138.914729 0.00652173913,117.491473 0.00652173913,91.1627907 C0.00652173913,64.8341085 21.4630435,43.4108527 47.8326087,43.4108527 C74.2021739,43.4108527 95.6586957,64.8341085 95.6586957,91.1627907 C95.6586957,117.491473 74.2021739,138.914729 47.8326087,138.914729" id="Fill-73" fill="#314E55"></path>
                            <g id="Group-77" transform="translate(156.521739, 47.751938)">
                                <g id="Fill-75-Clipped">
                                    <mask id="mask-4" fill="white">
                                        <use xlink:href="#path-3"></use>
                                    </mask>
                                    <g id="path-5"></g>
                                    <polygon id="Fill-75" fill="#FF3860" mask="url(#mask-4)" points="-21.7304348 108.527132 108.704348 108.527132 108.704348 -21.7054264 -21.7304348 -21.7054264"></polygon>
                                </g>
                            </g>
                            <g id="Group-86" transform="translate(44.565217, 0.000000)">
                                <path d="M155.441304,52.0930233 C133.867391,52.0930233 116.31087,69.6223256 116.31087,91.1627907 C116.31087,112.703256 133.867391,130.232558 155.441304,130.232558 C177.015217,130.232558 194.571739,112.703256 194.571739,91.1627907 C194.571739,69.6223256 177.015217,52.0930233 155.441304,52.0930233 M155.441304,138.914729 C129.071739,138.914729 107.615217,117.491473 107.615217,91.1627907 C107.615217,64.8341085 129.071739,43.4108527 155.441304,43.4108527 C181.81087,43.4108527 203.267391,64.8341085 203.267391,91.1627907 C203.267391,117.491473 181.81087,138.914729 155.441304,138.914729" id="Fill-78" fill="#314E55"></path>
                                <path d="M107.942174,47.4893023 C106.82913,47.4893023 105.716087,47.063876 104.868261,46.2173643 C94.6986957,36.0635659 94.6986957,19.5370543 104.868261,9.38325581 C115.037826,-0.770542636 131.585652,-0.770542636 141.759565,9.38325581 C143.459565,11.0762791 143.459565,13.824186 141.759565,15.5215504 C140.063913,17.2145736 137.311739,17.2145736 135.611739,15.5215504 C128.833478,8.75379845 117.798696,8.75379845 111.016087,15.5215504 C104.233478,22.2893023 104.233478,33.3069767 111.016087,40.0790698 C112.716087,41.7764341 112.716087,44.52 111.016087,46.2173643 C110.168261,47.063876 109.055217,47.4893023 107.942174,47.4893023" id="Fill-80" fill="#535353"></path>
                                <polygon id="Fill-82" fill="#535353" points="157.22913 98.4927132 101.794348 43.143876 107.942174 37.0055814 163.376957 92.3544186"></polygon>
                                <path d="M68.9156522,95.8155659 L8.16347826,95.8155659 C6.76782609,95.8155659 5.45478261,95.1470388 4.6373913,94.0140155 C3.82,92.8809922 3.59826087,91.4267287 4.04173913,90.1070388 L24.42,28.8977364 L5.04608696,8.99820155 C3.37217391,7.27913178 3.41130435,4.53122481 5.13304348,2.85990698 C6.85913043,1.19727132 9.60695652,1.22765891 11.2852174,2.94672868 L32.4982609,24.7346357 C33.6286957,25.9023876 34.02,27.5954109 33.5026087,29.132155 L14.193913,87.1333953 L66.5373913,87.1333953 L94.4678261,43.5532403 L42.4504348,43.5532403 C40.046087,43.5532403 38.1026087,41.6084341 38.1026087,39.212155 C38.1026087,36.815876 40.046087,34.8710698 42.4504348,34.8710698 L102.415652,34.8710698 C104.002609,34.8710698 105.463478,35.7349457 106.228696,37.1284341 C106.989565,38.5175814 106.933043,40.2149457 106.076522,41.552 L72.5765217,93.8143256 C71.7808696,95.0602171 70.3982609,95.8155659 68.9156522,95.8155659" id="Fill-84" fill="#314E55"></path>
                            </g>
                        </g>
                    </g>
                </g>
            </g>
        </g>
    </g>
</svg>